<svg width="80" height="80" viewBox="0 0 80 80" fill="none" xmlns="http://www.w3.org/2000/svg">
<path d="M40 0C17.92 0 0 17.92 0 40C0 62.08 17.92 80 40 80H60V72H40C22.64 72 8 57.36 8 40C8 22.64 22.64 8 40 8C57.36 8 72 22.64 72 40V45.72C72 48.88 69.16 52 66 52C62.84 52 60 48.88 60 45.72V40C60 28.96 51.04 20 40 20C28.96 20 20 28.96 20 40C20 51.04 28.96 60 40 60C45.52 60 50.56 57.76 54.16 54.12C56.76 57.68 61.24 60 66 60C73.88 60 80 53.6 80 45.72V40C80 17.92 62.08 0 40 0ZM40 52C33.36 52 28 46.64 28 40C28 33.36 33.36 28 40 28C46.64 28 52 33.36 52 40C52 46.64 46.64 52 40 52Z" fill="white"/>
</svg>
