<svg width="348" height="388" viewBox="0 0 348 388" fill="none" xmlns="http://www.w3.org/2000/svg">
<path fill-rule="evenodd" clip-rule="evenodd" d="M32.8429 139.798C27.8918 134.987 27.7784 127.073 32.5894 122.122L147.577 3.78881C152.388 -1.16223 160.302 -1.27571 165.253 3.53535C170.204 8.34641 170.318 16.2602 165.507 21.2112L50.5187 139.545C45.7077 144.496 37.7939 144.609 32.8429 139.798ZM46.9462 383.573C41.9951 378.762 41.8816 370.848 46.6927 365.897L255.064 151.463C259.876 146.512 267.789 146.398 272.74 151.209C277.691 156.02 277.805 163.934 272.994 168.885L64.622 383.32C59.811 388.271 51.8972 388.384 46.9462 383.573ZM208.804 328.214C203.993 333.165 204.106 341.078 209.057 345.889C214.008 350.7 221.922 350.587 226.733 345.636L308.967 261.01C313.778 256.059 313.664 248.145 308.713 243.334C303.762 238.523 295.848 238.636 291.037 243.587L208.804 328.214ZM117.548 375.489C112.597 370.678 112.484 362.764 117.295 357.813L325.667 143.378C330.478 138.427 338.391 138.314 343.342 143.125C348.293 147.936 348.407 155.85 343.596 160.801L135.224 375.235C130.413 380.186 122.499 380.3 117.548 375.489ZM63.2026 284.335C58.3916 289.286 58.5051 297.199 63.4561 302.011C68.4072 306.822 76.3209 306.708 81.132 301.757L196.12 183.424C200.931 178.473 200.817 170.559 195.866 165.748C190.915 160.937 183.001 161.05 178.19 166.001L63.2026 284.335ZM10.2765 292.165C5.32544 287.354 5.21196 279.441 10.023 274.489L255.33 22.0447C260.141 17.0937 268.055 16.9802 273.006 21.7913C277.957 26.6023 278.071 34.5161 273.26 39.4671L27.9523 291.912C23.1413 296.863 15.2275 296.976 10.2765 292.165ZM3.53535 216.594C-1.27571 221.545 -1.16223 229.459 3.78881 234.27C8.73986 239.081 16.6536 238.967 21.4647 234.016L221.474 28.1878C226.285 23.2368 226.171 15.323 221.22 10.512C216.269 5.70092 208.355 5.8144 203.544 10.7654L3.53535 216.594Z" fill="url(#paint0_linear_17_2590)"/>
<defs>
<linearGradient id="paint0_linear_17_2590" x1="173.566" y1="0" x2="173.566" y2="387.108" gradientUnits="userSpaceOnUse">
<stop stop-color="#FF63C1"/>
<stop offset="0.9999" stop-color="#5123B1"/>
<stop offset="1" stop-color="#FF63C1" stop-opacity="0"/>
</linearGradient>
</defs>
</svg>
