<svg width="150" height="100" viewBox="0 0 150 100" fill="none" xmlns="http://www.w3.org/2000/svg">
<path d="M0 15C0 6.71573 6.71573 0 15 0H135C143.284 0 150 6.71573 150 15V85C150 93.2843 143.284 100 135 100H15C6.71573 100 0 93.2843 0 85V15Z" fill="url(#paint0_linear_502_4)"/>
<path d="M48.4283 67H40.1896L52.7429 30.6364H62.6506L75.1861 67H66.9474L57.8388 38.946H57.5547L48.4283 67ZM47.9134 52.7067H67.3736V58.7081H47.9134V52.7067ZM86.9847 30.6364V67H79.4208V30.6364H86.9847ZM107.55 39.7273V45.4091H91.1262V39.7273H107.55ZM94.8549 33.1932H102.419V58.6193C102.419 59.3177 102.525 59.8622 102.738 60.2528C102.952 60.6316 103.247 60.898 103.626 61.0518C104.017 61.2057 104.467 61.2827 104.976 61.2827C105.331 61.2827 105.686 61.2531 106.041 61.1939C106.396 61.1229 106.668 61.0696 106.858 61.0341L108.047 66.6626C107.669 66.781 107.136 66.9171 106.449 67.071C105.763 67.2367 104.928 67.3374 103.946 67.3729C102.123 67.4439 100.525 67.2012 99.1518 66.6449C97.7905 66.0885 96.7311 65.2244 95.9735 64.0526C95.216 62.8807 94.8431 61.401 94.8549 59.6136V33.1932Z" fill="white"/>
<defs>
<linearGradient id="paint0_linear_502_4" x1="4.8629e-05" y1="5.70129e-05" x2="81.0325" y2="118.754" gradientUnits="userSpaceOnUse">
<stop stop-color="#FF63C1"/>
<stop offset="0.630208" stop-color="#913BB7"/>
<stop offset="1" stop-color="#5123B1"/>
</linearGradient>
</defs>
</svg>
