<svg width="100" height="100" viewBox="0 0 100 100" fill="none" xmlns="http://www.w3.org/2000/svg">
<path d="M0 15C0 6.71573 6.71573 0 15 0H85C93.2843 0 100 6.71573 100 15V85C100 93.2843 93.2843 100 85 100H15C6.71573 100 0 93.2843 0 85V15Z" fill="url(#paint0_linear_453_963)"/>
<path d="M36.1605 68V31.6364H50.7202C53.3954 31.6364 55.6267 32.0329 57.4141 32.826C59.2015 33.6191 60.545 34.7199 61.4446 36.1286C62.3442 37.5253 62.794 39.1352 62.794 40.9581C62.794 42.3786 62.5099 43.6274 61.9418 44.7045C61.3736 45.7699 60.5923 46.6458 59.598 47.3324C58.6155 48.0071 57.491 48.4865 56.2244 48.7706V49.1257C57.6094 49.1849 58.9055 49.5755 60.1129 50.2976C61.3322 51.0196 62.3205 52.0317 63.0781 53.3338C63.8357 54.6241 64.2145 56.1629 64.2145 57.9503C64.2145 59.8797 63.7351 61.602 62.7763 63.1172C61.8293 64.6205 60.4266 65.8101 58.5682 66.6861C56.7098 67.562 54.4193 68 51.6967 68H36.1605ZM43.8487 61.7145H50.1165C52.259 61.7145 53.8215 61.3061 54.804 60.4893C55.7865 59.6607 56.2777 58.5599 56.2777 57.1868C56.2777 56.1806 56.035 55.2929 55.5497 54.5234C55.0644 53.754 54.3719 53.1503 53.4723 52.7124C52.5845 52.2744 51.5251 52.0554 50.294 52.0554H43.8487V61.7145ZM43.8487 46.853H49.5483C50.6018 46.853 51.5369 46.6695 52.3537 46.3026C53.1823 45.9238 53.8333 45.3911 54.3068 44.7045C54.7921 44.018 55.0348 43.1953 55.0348 42.2365C55.0348 40.9226 54.5672 39.8632 53.6321 39.0582C52.7088 38.2533 51.3949 37.8509 49.6903 37.8509H43.8487V46.853Z" fill="white"/>
<defs>
<linearGradient id="paint0_linear_453_963" x1="3.24193e-05" y1="5.70129e-05" x2="87" y2="85" gradientUnits="userSpaceOnUse">
<stop stop-color="#FF63C1"/>
<stop offset="0.630208" stop-color="#913BB7"/>
<stop offset="1" stop-color="#5123B1"/>
</linearGradient>
</defs>
</svg>
