<svg width="100" height="100" viewBox="0 0 100 100" fill="none" xmlns="http://www.w3.org/2000/svg">
<path d="M0 15C0 6.71573 6.71573 0 15 0H85C93.2843 0 100 6.71573 100 15V85C100 93.2843 93.2843 100 85 100H15C6.71573 100 0 93.2843 0 85V15Z" fill="url(#paint0_linear_453_964)"/>
<path d="M65.245 44.3672H57.468C57.326 43.361 57.036 42.4673 56.598 41.6861C56.16 40.893 55.5978 40.2183 54.9112 39.6619C54.2247 39.1056 53.4316 38.6794 52.532 38.3835C51.6442 38.0876 50.6795 37.9396 49.6378 37.9396C47.7557 37.9396 46.1162 38.4072 44.7195 39.3423C43.3227 40.2656 42.2396 41.6151 41.4702 43.3906C40.7008 45.1544 40.3161 47.2969 40.3161 49.8182C40.3161 52.4105 40.7008 54.5885 41.4702 56.3523C42.2514 58.116 43.3404 59.4477 44.7372 60.3473C46.134 61.2469 47.7498 61.6967 49.5845 61.6967C50.6143 61.6967 51.5672 61.5606 52.4432 61.2884C53.331 61.0161 54.1181 60.6196 54.8047 60.0987C55.4912 59.5661 56.0594 58.9209 56.5092 58.1634C56.9709 57.4058 57.2905 56.5417 57.468 55.571L65.245 55.6065C65.0438 57.2756 64.5407 58.8854 63.7358 60.4361C62.9427 61.9749 61.8714 63.3539 60.522 64.5732C59.1844 65.7805 57.5864 66.7393 55.728 67.4496C53.8814 68.148 51.7921 68.4972 49.4602 68.4972C46.2169 68.4972 43.3168 67.7633 40.7599 66.2955C38.215 64.8277 36.2027 62.7029 34.723 59.9212C33.2552 57.1394 32.5213 53.7718 32.5213 49.8182C32.5213 45.8527 33.267 42.4792 34.7585 39.6974C36.25 36.9157 38.2741 34.7969 40.831 33.3409C43.3878 31.8731 46.2642 31.1392 49.4602 31.1392C51.5672 31.1392 53.5204 31.4351 55.3196 32.027C57.1307 32.6188 58.7346 33.483 60.1314 34.6193C61.5282 35.7438 62.6645 37.1229 63.5405 38.7564C64.4283 40.3899 64.9964 42.2602 65.245 44.3672Z" fill="white"/>
<defs>
<linearGradient id="paint0_linear_453_964" x1="3.24193e-05" y1="5.70129e-05" x2="87" y2="85" gradientUnits="userSpaceOnUse">
<stop stop-color="#FF63C1"/>
<stop offset="0.630208" stop-color="#913BB7"/>
<stop offset="1" stop-color="#5123B1"/>
</linearGradient>
</defs>
</svg>
