<svg width="100" height="100" viewBox="0 0 100 100" fill="none" xmlns="http://www.w3.org/2000/svg">
<path d="M0 15C0 6.71573 6.71573 0 15 0H85C93.2843 0 100 6.71573 100 15V85C100 93.2843 93.2843 100 85 100H15C6.71573 100 0 93.2843 0 85V15Z" fill="url(#paint0_linear_634_9)"/>
<path d="M34.6715 46.457H29.2276C29.1282 45.7527 28.9252 45.1271 28.6186 44.5803C28.312 44.0251 27.9184 43.5528 27.4379 43.1634C26.9573 42.7739 26.4021 42.4756 25.7724 42.2685C25.1509 42.0613 24.4756 41.9577 23.7464 41.9577C22.429 41.9577 21.2814 42.285 20.3036 42.9396C19.3259 43.5859 18.5677 44.5305 18.0291 45.7734C17.4905 47.008 17.2212 48.5078 17.2212 50.2727C17.2212 52.0874 17.4905 53.612 18.0291 54.8466C18.576 56.0812 19.3383 57.0134 20.3161 57.6431C21.2938 58.2728 22.4248 58.5877 23.7092 58.5877C24.43 58.5877 25.0971 58.4924 25.7102 58.3018C26.3317 58.1113 26.8827 57.8337 27.3633 57.4691C27.8439 57.0962 28.2416 56.6446 28.5565 56.1143C28.8796 55.584 29.1033 54.9792 29.2276 54.2997L34.6715 54.3246C34.5307 55.4929 34.1785 56.6198 33.6151 57.7053C33.0599 58.7824 32.31 59.7478 31.3654 60.6012C30.4291 61.4464 29.3105 62.1175 28.0096 62.6147C26.717 63.1036 25.2545 63.348 23.6222 63.348C21.3518 63.348 19.3217 62.8343 17.532 61.8068C15.7505 60.7794 14.3419 59.292 13.3061 57.3448C12.2786 55.3976 11.7649 53.0402 11.7649 50.2727C11.7649 47.4969 12.2869 45.1354 13.331 43.1882C14.375 41.241 15.7919 39.7578 17.5817 38.7386C19.3714 37.7112 21.3849 37.1974 23.6222 37.1974C25.0971 37.1974 26.4643 37.4046 27.7237 37.8189C28.9915 38.2332 30.1142 38.8381 31.092 39.6335C32.0697 40.4207 32.8652 41.386 33.4783 42.5295C34.0998 43.6729 34.4975 44.9821 34.6715 46.457ZM38.4313 63V43.9091H43.4775V47.2773H43.7012C44.0989 46.1587 44.7618 45.2763 45.6898 44.63C46.6178 43.9837 47.7282 43.6605 49.0208 43.6605C50.33 43.6605 51.4444 43.9878 52.3642 44.6424C53.2839 45.2887 53.8971 46.167 54.2037 47.2773H54.4025C54.792 46.1836 55.4963 45.3094 56.5154 44.6548C57.5429 43.992 58.7568 43.6605 60.1571 43.6605C61.9386 43.6605 63.3845 44.2281 64.4949 45.3633C65.6135 46.4902 66.1728 48.0894 66.1728 50.1609V63H60.8904V51.2049C60.8904 50.1443 60.6087 49.3488 60.0453 48.8185C59.4818 48.2882 58.7775 48.0231 57.9324 48.0231C56.9712 48.0231 56.2213 48.3297 55.6827 48.9428C55.1441 49.5477 54.8748 50.3473 54.8748 51.3416V63H49.7417V51.093C49.7417 50.1567 49.4724 49.411 48.9338 48.8558C48.4035 48.3007 47.7033 48.0231 46.8333 48.0231C46.245 48.0231 45.7147 48.1722 45.2424 48.4705C44.7784 48.7605 44.4096 49.1707 44.1362 49.701C43.8627 50.223 43.726 50.8362 43.726 51.5405V63H38.4313ZM77.3899 63.3107C75.9399 63.3107 74.6265 62.9379 73.4499 62.1921C72.2816 61.4381 71.3536 60.3319 70.6658 58.8736C69.9864 57.407 69.6467 55.6089 69.6467 53.4794C69.6467 51.2919 69.9988 49.4731 70.7031 48.0231C71.4074 46.5647 72.3438 45.4751 73.5121 44.7543C74.6887 44.0251 75.9772 43.6605 77.3775 43.6605C78.4464 43.6605 79.3371 43.8428 80.0497 44.2074C80.7706 44.5637 81.3506 45.0111 81.7898 45.5497C82.2372 46.08 82.5769 46.602 82.8089 47.1158H82.9705V37.5455H88.2528V63H83.0327V59.9425H82.8089C82.5604 60.4728 82.2082 60.9989 81.7525 61.521C81.305 62.0347 80.7209 62.4614 80 62.8011C79.2874 63.1409 78.4174 63.3107 77.3899 63.3107ZM79.0678 59.0973C79.9213 59.0973 80.6422 58.8653 81.2305 58.4013C81.8271 57.929 82.2828 57.2702 82.5977 56.4251C82.9208 55.5799 83.0824 54.5897 83.0824 53.4545C83.0824 52.3194 82.925 51.3333 82.6101 50.4964C82.2952 49.6596 81.8395 49.0133 81.2429 48.5575C80.6463 48.1018 79.9213 47.8739 79.0678 47.8739C78.1978 47.8739 77.4645 48.1101 76.8679 48.5824C76.2713 49.0547 75.8197 49.7093 75.5131 50.5462C75.2066 51.383 75.0533 52.3525 75.0533 53.4545C75.0533 54.5649 75.2066 55.5468 75.5131 56.4002C75.828 57.2454 76.2796 57.9083 76.8679 58.3888C77.4645 58.8612 78.1978 59.0973 79.0678 59.0973Z" fill="white"/>
<path d="M74.7909 29C77.0309 29 77.7509 27.6 77.7509 25.92V24.26H79.9509V25.92C79.9509 27.6 80.6709 29 82.9109 29C84.7709 29 85.9709 27.82 85.9709 25.98C85.9709 24.04 84.8109 22.9 82.5309 22.9H81.3509V20.7H82.5309C84.8109 20.7 85.9709 19.56 85.9709 17.62C85.9709 15.78 84.7709 14.6 82.9109 14.6C80.6709 14.6 79.9509 16 79.9509 17.68V19.34H77.7509V17.68C77.7509 16 77.0309 14.6 74.7909 14.6C72.9309 14.6 71.7309 15.78 71.7309 17.62C71.7309 19.56 72.8909 20.7 75.1709 20.7H76.3509V22.9H75.1709C72.8909 22.9 71.7309 24.04 71.7309 25.98C71.7309 27.82 72.9309 29 74.7909 29ZM81.3509 17.64C81.3509 16.62 81.8709 15.98 82.9109 15.98C83.8509 15.98 84.5509 16.44 84.5509 17.62C84.5509 18.76 83.9509 19.34 82.5309 19.34H81.3509V17.64ZM75.1709 19.34C73.7509 19.34 73.1509 18.76 73.1509 17.62C73.1509 16.44 73.8509 15.98 74.7909 15.98C75.8309 15.98 76.3509 16.62 76.3509 17.64V19.34H75.1709ZM77.7509 22.9V20.7H79.9509V22.9H77.7509ZM74.7909 27.62C73.8509 27.62 73.1509 27.16 73.1509 25.98C73.1509 24.84 73.7509 24.26 75.1709 24.26H76.3509V25.96C76.3509 26.98 75.8309 27.62 74.7909 27.62ZM81.3509 25.96V24.26H82.5309C83.9509 24.26 84.5509 24.84 84.5509 25.98C84.5509 27.16 83.8509 27.62 82.9109 27.62C81.8709 27.62 81.3509 26.98 81.3509 25.96Z" fill="white"/>
<defs>
<linearGradient id="paint0_linear_634_9" x1="3.24193e-05" y1="5.70129e-05" x2="87" y2="85" gradientUnits="userSpaceOnUse">
<stop stop-color="#FF63C1"/>
<stop offset="0.630208" stop-color="#913BB7"/>
<stop offset="1" stop-color="#5123B1"/>
</linearGradient>
</defs>
</svg>
