<svg width="150" height="100" viewBox="0 0 150 100" fill="none" xmlns="http://www.w3.org/2000/svg">
<path d="M0 15C0 6.71573 6.71573 0 15 0H135C143.284 0 150 6.71573 150 15V85C150 93.2843 143.284 100 135 100H15C6.71573 100 0 93.2843 0 85V15Z" fill="url(#paint0_linear_455_9)"/>
<path d="M64.245 44.3672H56.468C56.326 43.361 56.036 42.4673 55.598 41.6861C55.16 40.893 54.5978 40.2183 53.9112 39.6619C53.2247 39.1056 52.4316 38.6794 51.532 38.3835C50.6442 38.0876 49.6795 37.9396 48.6378 37.9396C46.7557 37.9396 45.1162 38.4072 43.7195 39.3423C42.3227 40.2656 41.2396 41.6151 40.4702 43.3906C39.7008 45.1544 39.3161 47.2969 39.3161 49.8182C39.3161 52.4105 39.7008 54.5885 40.4702 56.3523C41.2514 58.116 42.3404 59.4477 43.7372 60.3473C45.134 61.2469 46.7498 61.6967 48.5845 61.6967C49.6143 61.6967 50.5672 61.5606 51.4432 61.2884C52.331 61.0161 53.1181 60.6196 53.8047 60.0987C54.4912 59.5661 55.0594 58.9209 55.5092 58.1634C55.9709 57.4058 56.2905 56.5417 56.468 55.571L64.245 55.6065C64.0438 57.2756 63.5407 58.8854 62.7358 60.4361C61.9427 61.9749 60.8714 63.3539 59.522 64.5732C58.1844 65.7805 56.5864 66.7393 54.728 67.4496C52.8814 68.148 50.7921 68.4972 48.4602 68.4972C45.2169 68.4972 42.3168 67.7633 39.7599 66.2955C37.215 64.8277 35.2027 62.7029 33.723 59.9212C32.2552 57.1394 31.5213 53.7718 31.5213 49.8182C31.5213 45.8527 32.267 42.4792 33.7585 39.6974C35.25 36.9157 37.2741 34.7969 39.831 33.3409C42.3878 31.8731 45.2642 31.1392 48.4602 31.1392C50.5672 31.1392 52.5204 31.4351 54.3196 32.027C56.1307 32.6188 57.7346 33.483 59.1314 34.6193C60.5282 35.7438 61.6645 37.1229 62.5405 38.7564C63.4283 40.3899 63.9964 42.2602 64.245 44.3672ZM84.1225 40.7273V46.4091H67.6985V40.7273H84.1225ZM71.4272 34.1932H78.9911V59.6193C78.9911 60.3177 79.0977 60.8622 79.3107 61.2528C79.5238 61.6316 79.8197 61.898 80.1985 62.0518C80.5891 62.2057 81.0389 62.2827 81.5479 62.2827C81.9031 62.2827 82.2582 62.2531 82.6133 62.1939C82.9684 62.1229 83.2406 62.0696 83.43 62.0341L84.6197 67.6626C84.2409 67.781 83.7082 67.9171 83.0217 68.071C82.3351 68.2367 81.5006 68.3374 80.5181 68.3729C78.6952 68.4439 77.0972 68.2012 75.7241 67.6449C74.3628 67.0885 73.3034 66.2244 72.5458 65.0526C71.7882 63.8807 71.4154 62.401 71.4272 60.6136V34.1932ZM89.0497 68V40.7273H96.3828V45.4858H96.6669C97.1641 43.7931 97.9986 42.5147 99.1705 41.6506C100.342 40.7746 101.692 40.3366 103.219 40.3366C103.598 40.3366 104.006 40.3603 104.444 40.4077C104.882 40.455 105.267 40.5201 105.598 40.603V47.3146C105.243 47.2081 104.752 47.1134 104.124 47.0305C103.497 46.9477 102.923 46.9062 102.402 46.9062C101.289 46.9062 100.295 47.1489 99.419 47.6342C98.5549 48.1077 97.8684 48.7706 97.3594 49.6229C96.8622 50.4751 96.6136 51.4576 96.6136 52.5703V68H89.0497ZM117.073 31.6364V68H109.509V31.6364H117.073Z" fill="white"/>
<defs>
<linearGradient id="paint0_linear_455_9" x1="4.8629e-05" y1="5.70129e-05" x2="81.0325" y2="118.754" gradientUnits="userSpaceOnUse">
<stop stop-color="#FF63C1"/>
<stop offset="0.630208" stop-color="#913BB7"/>
<stop offset="1" stop-color="#5123B1"/>
</linearGradient>
</defs>
</svg>
