<svg width="100" height="100" viewBox="0 0 100 100" fill="none" xmlns="http://www.w3.org/2000/svg">
<path d="M0 15C0 6.71573 6.71573 0 15 0H85C93.2843 0 100 6.71573 100 15V85C100 93.2843 93.2843 100 85 100H15C6.71573 100 0 93.2843 0 85V15Z" fill="url(#paint0_linear_453_965)"/>
<path d="M50.0511 68H37.1605V31.6364H50.1577C53.8153 31.6364 56.964 32.3643 59.6037 33.8203C62.2434 35.2644 64.2734 37.3419 65.6939 40.0526C67.1262 42.7633 67.8423 46.0066 67.8423 49.7827C67.8423 53.5705 67.1262 56.8258 65.6939 59.5483C64.2734 62.2708 62.2315 64.3601 59.5682 65.8161C56.9167 67.272 53.7443 68 50.0511 68ZM44.8487 61.4126H49.7315C52.0043 61.4126 53.916 61.0102 55.4666 60.2053C57.0291 59.3885 58.201 58.1278 58.9822 56.4233C59.7753 54.7069 60.1719 52.4934 60.1719 49.7827C60.1719 47.0956 59.7753 44.8999 58.9822 43.1953C58.201 41.4908 57.035 40.236 55.4844 39.4311C53.9337 38.6262 52.022 38.2237 49.7493 38.2237H44.8487V61.4126Z" fill="white"/>
<defs>
<linearGradient id="paint0_linear_453_965" x1="3.24193e-05" y1="5.70129e-05" x2="87" y2="85" gradientUnits="userSpaceOnUse">
<stop stop-color="#FF63C1"/>
<stop offset="0.630208" stop-color="#913BB7"/>
<stop offset="1" stop-color="#5123B1"/>
</linearGradient>
</defs>
</svg>
