<svg width="100" height="100" viewBox="0 0 100 100" fill="none" xmlns="http://www.w3.org/2000/svg">
<path d="M0 15C0 6.71573 6.71573 0 15 0H85C93.2843 0 100 6.71573 100 15V85C100 93.2843 93.2843 100 85 100H15C6.71573 100 0 93.2843 0 85V15Z" fill="url(#paint0_linear_453_959)"/>
<path d="M12.8445 66V33.2727H34.5135V38.9776H19.7638V46.7759H33.0753V52.4808H19.7638V66H12.8445ZM53.2142 33.2727V66H46.2948V39.8406H46.1031L38.6084 44.5387V38.4023L46.7103 33.2727H53.2142ZM73.8246 66.7191C71.076 66.7085 68.7109 66.032 66.7294 64.6896C64.7585 63.3473 63.2404 61.4031 62.1751 58.8569C61.1204 56.3107 60.5984 53.2479 60.609 49.6683C60.609 46.0994 61.1364 43.0579 62.1911 40.5437C63.2564 38.0295 64.7745 36.1172 66.7454 34.8068C68.7269 33.4858 71.0866 32.8253 73.8246 32.8253C76.5625 32.8253 78.9169 33.4858 80.8878 34.8068C82.8693 36.1278 84.3928 38.0455 85.4581 40.5597C86.5234 43.0632 87.0508 46.0994 87.0401 49.6683C87.0401 53.2585 86.5075 56.3267 85.4421 58.8729C84.3874 61.419 82.8746 63.3633 80.9038 64.7056C78.9329 66.0479 76.5732 66.7191 73.8246 66.7191ZM73.8246 60.9822C75.6996 60.9822 77.1964 60.0394 78.315 58.1538C79.4336 56.2681 79.9876 53.4396 79.9769 49.6683C79.9769 47.1861 79.7212 45.1193 79.2099 43.468C78.7092 41.8168 77.9954 40.5756 77.0685 39.7447C76.1523 38.9137 75.071 38.4982 73.8246 38.4982C71.9602 38.4982 70.4688 39.4304 69.3501 41.2947C68.2315 43.1591 67.6669 45.9503 67.6562 49.6683C67.6562 52.1825 67.9066 54.2812 68.4073 55.9645C68.9187 57.6371 69.6378 58.8942 70.5646 59.7358C71.4915 60.5668 72.5781 60.9822 73.8246 60.9822Z" fill="white"/>
<defs>
<linearGradient id="paint0_linear_453_959" x1="3.24193e-05" y1="5.70129e-05" x2="87" y2="85" gradientUnits="userSpaceOnUse">
<stop stop-color="#FF63C1"/>
<stop offset="0.630208" stop-color="#913BB7"/>
<stop offset="1" stop-color="#5123B1"/>
</linearGradient>
</defs>
</svg>
