<svg width="100" height="100" viewBox="0 0 100 100" fill="none" xmlns="http://www.w3.org/2000/svg">
<path d="M0 15C0 6.71573 6.71573 0 15 0H85C93.2843 0 100 6.71573 100 15V85C100 93.2843 93.2843 100 85 100H15C6.71573 100 0 93.2843 0 85V15Z" fill="url(#paint0_linear_453_961)"/>
<path d="M15.8445 66V33.2727H37.5135V38.9776H22.7638V46.7759H36.0753V52.4808H22.7638V66H15.8445ZM56.2142 33.2727V66H49.2948V39.8406H49.1031L41.6084 44.5387V38.4023L49.7103 33.2727H56.2142ZM63.9925 66V61.0142L75.642 50.2276C76.6328 49.2688 77.4638 48.4059 78.1349 47.6388C78.8168 46.8718 79.3335 46.1207 79.685 45.3857C80.0366 44.6399 80.2124 43.8356 80.2124 42.9727C80.2124 42.0138 79.994 41.1882 79.5572 40.4957C79.1204 39.7926 78.5238 39.2546 77.7674 38.8817C77.011 38.4982 76.1534 38.3065 75.1946 38.3065C74.1932 38.3065 73.3196 38.5089 72.5739 38.9137C71.8281 39.3185 71.2528 39.8991 70.848 40.6555C70.4432 41.4119 70.2408 42.3121 70.2408 43.3562H63.6729C63.6729 41.2148 64.1577 39.3558 65.1271 37.7791C66.0966 36.2024 67.4549 34.9826 69.2021 34.1197C70.9492 33.2567 72.9627 32.8253 75.2425 32.8253C77.5863 32.8253 79.6264 33.2408 81.3629 34.0717C83.1101 34.892 84.4684 36.032 85.4379 37.4915C86.4073 38.951 86.892 40.6236 86.892 42.5092C86.892 43.745 86.647 44.9648 86.157 46.1687C85.6776 47.3725 84.82 48.7095 83.5842 50.1797C82.3484 51.6392 80.6065 53.3917 78.3587 55.4371L73.5806 60.1193V60.343H87.3235V66H63.9925Z" fill="white"/>
<defs>
<linearGradient id="paint0_linear_453_961" x1="3.24193e-05" y1="5.70129e-05" x2="87" y2="85" gradientUnits="userSpaceOnUse">
<stop stop-color="#FF63C1"/>
<stop offset="0.630208" stop-color="#913BB7"/>
<stop offset="1" stop-color="#5123B1"/>
</linearGradient>
</defs>
</svg>
