<svg width="100" height="100" viewBox="0 0 100 100" fill="none" xmlns="http://www.w3.org/2000/svg">
<path d="M0 15C0 6.71573 6.71573 0 15 0H85C93.2843 0 100 6.71573 100 15V85C100 93.2843 93.2843 100 85 100H15C6.71573 100 0 93.2843 0 85V15Z" fill="url(#paint0_linear_453_951)"/>
<path d="M22.1605 68V31.6364H46.2372V37.9751H29.8487V46.6399H44.6392V52.9787H29.8487V68H22.1605ZM51.1955 68V62.4602L64.1394 50.4751C65.2402 49.4098 66.1635 48.451 66.9093 47.5987C67.6668 46.7464 68.2409 45.9119 68.6316 45.0952C69.0222 44.2666 69.2175 43.3729 69.2175 42.4141C69.2175 41.3487 68.9748 40.4313 68.4895 39.6619C68.0042 38.8807 67.3413 38.2829 66.5009 37.8686C65.6605 37.4425 64.7076 37.2294 63.6422 37.2294C62.5295 37.2294 61.5589 37.4543 60.7303 37.9041C59.9017 38.3539 59.2625 38.9991 58.8127 39.8395C58.3629 40.6799 58.138 41.6802 58.138 42.8402H50.8404C50.8404 40.4609 51.379 38.3954 52.4561 36.6435C53.5333 34.8916 55.0426 33.5362 56.9838 32.5774C58.9251 31.6186 61.1623 31.1392 63.6955 31.1392C66.2997 31.1392 68.5665 31.6009 70.4959 32.5241C72.4372 33.4356 73.9464 34.7022 75.0236 36.3239C76.1008 37.9455 76.6394 39.804 76.6394 41.8991C76.6394 43.2723 76.3671 44.6276 75.8226 45.9652C75.29 47.3028 74.3371 48.7884 72.964 50.4219C71.5908 52.0436 69.6555 53.9908 67.1578 56.2635L61.8489 61.4659V61.7145H77.1188V68H51.1955Z" fill="white"/>
<defs>
<linearGradient id="paint0_linear_453_951" x1="3.24193e-05" y1="5.70129e-05" x2="87" y2="85" gradientUnits="userSpaceOnUse">
<stop stop-color="#FF63C1"/>
<stop offset="0.630208" stop-color="#913BB7"/>
<stop offset="1" stop-color="#5123B1"/>
</linearGradient>
</defs>
</svg>
