<svg width="100" height="100" viewBox="0 0 100 100" fill="none" xmlns="http://www.w3.org/2000/svg">
<path d="M0 15C0 6.71573 6.71573 0 15 0H85C93.2843 0 100 6.71573 100 15V85C100 93.2843 93.2843 100 85 100H15C6.71573 100 0 93.2843 0 85V15Z" fill="url(#paint0_linear_453_952)"/>
<path d="M21.1605 68V31.6364H45.2372V37.9751H28.8487V46.6399H43.6392V52.9787H28.8487V68H21.1605ZM63.6365 68.4972C60.985 68.4972 58.6235 68.0414 56.552 67.13C54.4924 66.2067 52.8648 64.9401 51.6692 63.3303C50.4855 61.7086 49.8759 59.8383 49.8404 57.7195H57.5819C57.6292 58.6072 57.9192 59.3885 58.4519 60.0632C58.9964 60.7261 59.7185 61.241 60.6181 61.608C61.5177 61.9749 62.5298 62.1584 63.6543 62.1584C64.8262 62.1584 65.8619 61.9512 66.7615 61.5369C67.6612 61.1226 68.3655 60.5485 68.8745 59.8146C69.3835 59.0807 69.638 58.2344 69.638 57.2756C69.638 56.3049 69.3657 55.4467 68.8212 54.701C68.2885 53.9434 67.5191 53.3516 66.513 52.9254C65.5186 52.4993 64.3349 52.2862 62.9618 52.2862H59.5705V46.6399H62.9618C64.1219 46.6399 65.1458 46.4387 66.0336 46.0362C66.9332 45.6338 67.6316 45.0774 68.1287 44.3672C68.6259 43.6451 68.8745 42.8047 68.8745 41.8459C68.8745 40.9344 68.6555 40.1354 68.2175 39.4489C67.7914 38.7505 67.1877 38.206 66.4064 37.8153C65.637 37.4247 64.7374 37.2294 63.7076 37.2294C62.6659 37.2294 61.713 37.4188 60.8489 37.7976C59.9848 38.1645 59.2923 38.6913 58.7715 39.3778C58.2507 40.0644 57.9725 40.8693 57.937 41.7926H50.5684C50.6039 39.6974 51.2016 37.8509 52.3617 36.2528C53.5217 34.6548 55.0842 33.406 57.0492 32.5064C59.026 31.5949 61.2573 31.1392 63.7431 31.1392C66.2525 31.1392 68.4483 31.5949 70.3304 32.5064C72.2125 33.4178 73.6744 34.6489 74.7161 36.1996C75.7696 37.7384 76.2904 39.4666 76.2786 41.3842C76.2904 43.4202 75.6571 45.1188 74.3787 46.4801C73.1122 47.8414 71.4609 48.7055 69.4249 49.0724V49.3565C72.1001 49.6998 74.1361 50.629 75.5328 52.1442C76.9415 53.6475 77.6399 55.5296 77.628 57.7905C77.6399 59.862 77.0421 61.7027 75.8347 63.3125C74.6391 64.9223 72.9879 66.1889 70.8809 67.1122C68.7739 68.0355 66.3591 68.4972 63.6365 68.4972Z" fill="white"/>
<defs>
<linearGradient id="paint0_linear_453_952" x1="3.24193e-05" y1="5.70129e-05" x2="87" y2="85" gradientUnits="userSpaceOnUse">
<stop stop-color="#FF63C1"/>
<stop offset="0.630208" stop-color="#913BB7"/>
<stop offset="1" stop-color="#5123B1"/>
</linearGradient>
</defs>
</svg>
