<svg width="100" height="100" viewBox="0 0 100 100" fill="none" xmlns="http://www.w3.org/2000/svg">
<path d="M0 15C0 6.71573 6.71573 0 15 0H85C93.2843 0 100 6.71573 100 15V85C100 93.2843 93.2843 100 85 100H15C6.71573 100 0 93.2843 0 85V15Z" fill="url(#paint0_linear_453_954)"/>
<path d="M22.1605 68V31.6364H46.2372V37.9751H29.8487V46.6399H44.6392V52.9787H29.8487V68H22.1605ZM64.4767 68.4972C61.9673 68.4972 59.7301 68.0355 57.7651 67.1122C55.812 66.1889 54.2613 64.9164 53.1131 63.2947C51.9649 61.6731 51.3671 59.8146 51.3198 57.7195H58.7772C58.86 59.1281 59.4519 60.2704 60.5527 61.1463C61.6536 62.0223 62.9616 62.4602 64.4767 62.4602C65.6841 62.4602 66.7495 62.1939 67.6728 61.6612C68.6079 61.1167 69.3359 60.3651 69.8567 59.4062C70.3894 58.4356 70.6557 57.3229 70.6557 56.0682C70.6557 54.7898 70.3835 53.6652 69.839 52.6946C69.3063 51.724 68.5665 50.9664 67.6195 50.4219C66.6725 49.8774 65.5894 49.5992 64.3702 49.5874C63.3049 49.5874 62.2691 49.8063 61.263 50.2443C60.2686 50.6823 59.4933 51.2801 58.937 52.0376L52.101 50.8125L53.8233 31.6364H76.0534V37.9219H60.1621L59.2211 47.0305H59.4341C60.0733 46.1309 61.0381 45.3852 62.3283 44.7933C63.6185 44.2015 65.0627 43.9055 66.6607 43.9055C68.8506 43.9055 70.8037 44.4205 72.5201 45.4503C74.2364 46.4801 75.5918 47.8946 76.5861 49.6939C77.5804 51.4813 78.0717 53.541 78.0598 55.8729C78.0717 58.3232 77.5035 60.5012 76.3553 62.407C75.2189 64.3009 73.6268 65.7924 71.579 66.8814C69.543 67.9586 67.1756 68.4972 64.4767 68.4972Z" fill="white"/>
<defs>
<linearGradient id="paint0_linear_453_954" x1="3.24193e-05" y1="5.70129e-05" x2="87" y2="85" gradientUnits="userSpaceOnUse">
<stop stop-color="#FF63C1"/>
<stop offset="0.630208" stop-color="#913BB7"/>
<stop offset="1" stop-color="#5123B1"/>
</linearGradient>
</defs>
</svg>
