<svg width="100" height="100" viewBox="0 0 100 100" fill="none" xmlns="http://www.w3.org/2000/svg">
<path d="M0 15C0 6.71573 6.71573 0 15 0H85C93.2843 0 100 6.71573 100 15V85C100 93.2843 93.2843 100 85 100H15C6.71573 100 0 93.2843 0 85V15Z" fill="url(#paint0_linear_453_955)"/>
<path d="M21.1605 68V31.6364H45.2372V37.9751H28.8487V46.6399H43.6392V52.9787H28.8487V68H21.1605ZM64.1515 68.4972C62.2812 68.4853 60.476 68.1716 58.736 67.5561C57.0078 66.9406 55.4571 65.9403 54.084 64.5554C52.7109 63.1705 51.6219 61.3357 50.8169 59.0511C50.0239 56.7666 49.6273 53.9612 49.6273 50.6349C49.6391 47.581 49.9883 44.8525 50.6749 42.4496C51.3733 40.0348 52.3676 37.987 53.6578 36.3061C54.9599 34.6252 56.5165 33.3468 58.3276 32.4709C60.1387 31.5831 62.1687 31.1392 64.4178 31.1392C66.8444 31.1392 68.9869 31.6127 70.8453 32.5597C72.7038 33.4948 74.1953 34.7673 75.3198 36.3771C76.4561 37.987 77.1427 39.7921 77.3794 41.7926H69.7978C69.5018 40.526 68.8804 39.5317 67.9334 38.8097C66.9864 38.0876 65.8146 37.7266 64.4178 37.7266C62.0504 37.7266 60.2511 38.7564 59.0201 40.8161C57.8008 42.8757 57.1794 45.6752 57.1557 49.2145H57.4043C57.9488 48.1373 58.6827 47.2199 59.606 46.4624C60.5411 45.6929 61.6006 45.107 62.7843 44.7045C63.9798 44.2902 65.2405 44.0831 66.5662 44.0831C68.7206 44.0831 70.6382 44.5921 72.3191 45.6101C73.9999 46.6162 75.3257 48.0012 76.2963 49.7649C77.267 51.5286 77.7523 53.5469 77.7523 55.8196C77.7523 58.2817 77.1782 60.4716 76.03 62.3892C74.8936 64.3068 73.3016 65.8101 71.2537 66.8991C69.2177 67.9763 66.8503 68.509 64.1515 68.4972ZM64.1159 62.4602C65.2997 62.4602 66.3591 62.1761 67.2942 61.608C68.2293 61.0398 68.9632 60.2704 69.4959 59.2997C70.0286 58.3291 70.2949 57.2401 70.2949 56.0327C70.2949 54.8253 70.0286 53.7422 69.4959 52.7834C68.9751 51.8246 68.253 51.0611 67.3297 50.4929C66.4064 49.9247 65.3529 49.6406 64.1692 49.6406C63.2814 49.6406 62.4587 49.8063 61.7012 50.1378C60.9554 50.4692 60.2985 50.9309 59.7303 51.5227C59.1739 52.1146 58.736 52.8011 58.4164 53.5824C58.0968 54.3518 57.937 55.1745 57.937 56.0504C57.937 57.2223 58.2033 58.2936 58.736 59.2642C59.2805 60.2348 60.0144 61.0102 60.9377 61.5902C61.8728 62.1702 62.9322 62.4602 64.1159 62.4602Z" fill="white"/>
<defs>
<linearGradient id="paint0_linear_453_955" x1="3.24193e-05" y1="5.70129e-05" x2="87" y2="85" gradientUnits="userSpaceOnUse">
<stop stop-color="#FF63C1"/>
<stop offset="0.630208" stop-color="#913BB7"/>
<stop offset="1" stop-color="#5123B1"/>
</linearGradient>
</defs>
</svg>
