<svg width="100" height="100" viewBox="0 0 100 100" fill="none" xmlns="http://www.w3.org/2000/svg">
<path d="M0 15C0 6.71573 6.71573 0 15 0H85C93.2843 0 100 6.71573 100 15V85C100 93.2843 93.2843 100 85 100H15C6.71573 100 0 93.2843 0 85V15Z" fill="url(#paint0_linear_453_956)"/>
<path d="M23.1605 68V31.6364H47.2372V37.9751H30.8487V46.6399H45.6392V52.9787H30.8487V68H23.1605ZM53.6337 68L68.7083 38.1705V37.9219H51.1479V31.6364H76.6628V38.0107L61.5705 68H53.6337Z" fill="white"/>
<defs>
<linearGradient id="paint0_linear_453_956" x1="3.24193e-05" y1="5.70129e-05" x2="87" y2="85" gradientUnits="userSpaceOnUse">
<stop stop-color="#FF63C1"/>
<stop offset="0.630208" stop-color="#913BB7"/>
<stop offset="1" stop-color="#5123B1"/>
</linearGradient>
</defs>
</svg>
