<svg width="100" height="100" viewBox="0 0 100 100" fill="none" xmlns="http://www.w3.org/2000/svg">
<path d="M0 15C0 6.71573 6.71573 0 15 0H85C93.2843 0 100 6.71573 100 15V85C100 93.2843 93.2843 100 85 100H15C6.71573 100 0 93.2843 0 85V15Z" fill="url(#paint0_linear_453_957)"/>
<path d="M21.1605 68V31.6364H45.2372V37.9751H28.8487V46.6399H43.6392V52.9787H28.8487V68H21.1605ZM63.7608 68.4972C61.0265 68.4972 58.5939 68.0533 56.4632 67.1655C54.3444 66.2659 52.6813 65.0407 51.4739 63.4901C50.2665 61.9394 49.6628 60.1816 49.6628 58.2166C49.6628 56.7015 50.0061 55.3106 50.6926 54.044C51.391 52.7656 52.338 51.7062 53.5336 50.8658C54.7291 50.0135 56.0667 49.469 57.5463 49.2322V48.9837C55.6051 48.593 54.0307 47.652 52.8233 46.1605C51.6159 44.6572 51.0123 42.9112 51.0123 40.9226C51.0123 39.0405 51.5627 37.3655 52.6635 35.8977C53.7644 34.4181 55.2736 33.258 57.1912 32.4176C59.1207 31.5653 61.3105 31.1392 63.7608 31.1392C66.2111 31.1392 68.3951 31.5653 70.3127 32.4176C72.2421 33.2699 73.7573 34.4358 74.8581 35.9155C75.959 37.3833 76.5153 39.0523 76.5272 40.9226C76.5153 42.9231 75.8998 44.669 74.6806 46.1605C73.4614 47.652 71.8989 48.593 69.9931 48.9837V49.2322C71.449 49.469 72.7689 50.0135 73.9526 50.8658C75.1481 51.7062 76.0951 52.7656 76.7935 54.044C77.5037 55.3106 77.8648 56.7015 77.8766 58.2166C77.8648 60.1816 77.2551 61.9394 76.0478 63.4901C74.8404 65.0407 73.1713 66.2659 71.0407 67.1655C68.9218 68.0533 66.4952 68.4972 63.7608 68.4972ZM63.7608 62.8509C64.9801 62.8509 66.0454 62.6319 66.9569 62.1939C67.8683 61.7441 68.5785 61.1286 69.0875 60.3473C69.6084 59.5542 69.8688 58.6428 69.8688 57.6129C69.8688 56.5594 69.6025 55.6302 69.0698 54.8253C68.5371 54.0085 67.815 53.3693 66.9036 52.9077C65.9921 52.4342 64.9445 52.1974 63.7608 52.1974C62.589 52.1974 61.5414 52.4342 60.6181 52.9077C59.6948 53.3693 58.9668 54.0085 58.4341 54.8253C57.9133 55.6302 57.6529 56.5594 57.6529 57.6129C57.6529 58.6428 57.9074 59.5542 58.4164 60.3473C58.9254 61.1286 59.6415 61.7441 60.5648 62.1939C61.4881 62.6319 62.5534 62.8509 63.7608 62.8509ZM63.7608 46.6044C64.7788 46.6044 65.6844 46.3973 66.4775 45.983C67.2705 45.5687 67.892 44.9946 68.3418 44.2607C68.7916 43.5268 69.0165 42.6804 69.0165 41.7216C69.0165 40.7746 68.7916 39.946 68.3418 39.2358C67.892 38.5137 67.2765 37.9515 66.4952 37.549C65.714 37.1347 64.8025 36.9276 63.7608 36.9276C62.731 36.9276 61.8195 37.1347 61.0265 37.549C60.2334 37.9515 59.6119 38.5137 59.1621 39.2358C58.7241 39.946 58.5051 40.7746 58.5051 41.7216C58.5051 42.6804 58.7301 43.5268 59.1799 44.2607C59.6297 44.9946 60.2511 45.5687 61.0442 45.983C61.8373 46.3973 62.7428 46.6044 63.7608 46.6044Z" fill="white"/>
<defs>
<linearGradient id="paint0_linear_453_957" x1="3.24193e-05" y1="5.70129e-05" x2="87" y2="85" gradientUnits="userSpaceOnUse">
<stop stop-color="#FF63C1"/>
<stop offset="0.630208" stop-color="#913BB7"/>
<stop offset="1" stop-color="#5123B1"/>
</linearGradient>
</defs>
</svg>
