<svg width="100" height="100" viewBox="0 0 100 100" fill="none" xmlns="http://www.w3.org/2000/svg">
<path d="M0 15C0 6.71573 6.71573 0 15 0H85C93.2843 0 100 6.71573 100 15V85C100 93.2843 93.2843 100 85 100H15C6.71573 100 0 93.2843 0 85V15Z" fill="url(#paint0_linear_453_958)"/>
<path d="M21.1605 68V31.6364H45.2372V37.9751H28.8487V46.6399H43.6392V52.9787H28.8487V68H21.1605ZM63.3525 31.1392C65.2227 31.1392 67.022 31.4529 68.7502 32.0803C70.4902 32.7076 72.0409 33.7079 73.4022 35.081C74.7753 36.4541 75.8584 38.277 76.6515 40.5497C77.4564 42.8106 77.8648 45.5864 77.8766 48.8771C77.8766 51.9666 77.5274 54.7247 76.829 57.1513C76.1425 59.5661 75.1541 61.6198 73.8638 63.3125C72.5736 65.0052 71.017 66.2955 69.1941 67.1832C67.3712 68.0592 65.3352 68.4972 63.0861 68.4972C60.6595 68.4972 58.517 68.0296 56.6586 67.0945C54.8001 66.1475 53.3027 64.8632 52.1664 63.2415C51.0418 61.608 50.3612 59.7732 50.1245 57.7372H57.7061C58.0021 59.063 58.6235 60.0928 59.5705 60.8267C60.5175 61.5488 61.6893 61.9098 63.0861 61.9098C65.4535 61.9098 67.2528 60.88 68.4838 58.8203C69.7149 56.7488 70.3364 53.9138 70.3482 50.3153H70.0996C69.5551 51.3807 68.8212 52.2981 67.8979 53.0675C66.9746 53.825 65.9152 54.411 64.7196 54.8253C63.5359 55.2396 62.2753 55.4467 60.9377 55.4467C58.7952 55.4467 56.8835 54.9437 55.2026 53.9375C53.5217 52.9313 52.196 51.5464 51.2253 49.7827C50.2547 48.0189 49.7694 46.0066 49.7694 43.7457C49.7575 41.3073 50.3198 39.1352 51.4561 37.2294C52.5925 35.3236 54.1787 33.8321 56.2147 32.755C58.2625 31.666 60.6417 31.1274 63.3525 31.1392ZM63.4057 37.1761C62.2102 37.1761 61.1448 37.4602 60.2097 38.0284C59.2864 38.5966 58.5525 39.3601 58.008 40.3189C57.4753 41.2777 57.2149 42.349 57.2267 43.5327C57.2267 44.7282 57.4872 45.8054 58.008 46.7642C58.5407 47.7112 59.2627 48.4687 60.1742 49.0369C61.0975 49.5933 62.151 49.8714 63.3347 49.8714C64.2225 49.8714 65.0452 49.7057 65.8027 49.3743C66.5603 49.0428 67.2173 48.5871 67.7736 48.0071C68.3418 47.4152 68.7857 46.7346 69.1053 45.9652C69.4249 45.1958 69.5847 44.379 69.5847 43.5149C69.5729 42.3667 69.3006 41.3132 68.7679 40.3544C68.2353 39.3956 67.5014 38.6262 66.5662 38.0462C65.6311 37.4661 64.5776 37.1761 63.4057 37.1761Z" fill="white"/>
<defs>
<linearGradient id="paint0_linear_453_958" x1="3.24193e-05" y1="5.70129e-05" x2="87" y2="85" gradientUnits="userSpaceOnUse">
<stop stop-color="#FF63C1"/>
<stop offset="0.630208" stop-color="#913BB7"/>
<stop offset="1" stop-color="#5123B1"/>
</linearGradient>
</defs>
</svg>
