<svg width="100" height="100" viewBox="0 0 100 100" fill="none" xmlns="http://www.w3.org/2000/svg">
<path d="M0 15C0 6.71573 6.71573 0 15 0H85C93.2843 0 100 6.71573 100 15V85C100 93.2843 93.2843 100 85 100H15C6.71573 100 0 93.2843 0 85V15Z" fill="url(#paint0_linear_453_968)"/>
<path d="M56.2727 43.3906C56.0241 42.5265 55.675 41.763 55.2251 41.1001C54.7753 40.4254 54.2249 39.8572 53.5739 39.3956C52.9347 38.9221 52.2008 38.5611 51.3722 38.3125C50.5554 38.0639 49.6499 37.9396 48.6555 37.9396C46.7971 37.9396 45.1636 38.4013 43.755 39.3246C42.3582 40.2479 41.2692 41.5914 40.4879 43.3551C39.7067 45.107 39.3161 47.2495 39.3161 49.7827C39.3161 52.3158 39.7008 54.4702 40.4702 56.2457C41.2396 58.0213 42.3286 59.3767 43.7372 60.3118C45.1458 61.2351 46.8089 61.6967 48.7266 61.6967C50.4666 61.6967 51.9522 61.389 53.1832 60.7734C54.4261 60.1461 55.3731 59.2642 56.0241 58.1278C56.687 56.9915 57.0185 55.648 57.0185 54.0973L58.581 54.3281H49.206V48.5398H64.4226V53.1207C64.4226 56.3168 63.7479 59.063 62.3984 61.3594C61.049 63.6439 59.1906 65.4077 56.8232 66.6506C54.4557 67.8816 51.745 68.4972 48.6911 68.4972C45.282 68.4972 42.2872 67.7455 39.7067 66.2422C37.1262 64.727 35.1139 62.5786 33.6697 59.7969C32.2375 57.0033 31.5213 53.6889 31.5213 49.8537C31.5213 46.9062 31.9474 44.2784 32.7997 41.9702C33.6638 39.6501 34.8712 37.6851 36.4219 36.0753C37.9725 34.4654 39.7777 33.2403 41.8374 32.3999C43.897 31.5594 46.1283 31.1392 48.5312 31.1392C50.5909 31.1392 52.5085 31.4411 54.2841 32.0447C56.0597 32.6366 57.634 33.477 59.0071 34.5661C60.392 35.6551 61.5225 36.9512 62.3984 38.4545C63.2744 39.946 63.8366 41.5914 64.0852 43.3906H56.2727Z" fill="white"/>
<defs>
<linearGradient id="paint0_linear_453_968" x1="3.24193e-05" y1="5.70129e-05" x2="87" y2="85" gradientUnits="userSpaceOnUse">
<stop stop-color="#FF63C1"/>
<stop offset="0.630208" stop-color="#913BB7"/>
<stop offset="1" stop-color="#5123B1"/>
</linearGradient>
</defs>
</svg>
