<svg width="100" height="100" viewBox="0 0 100 100" fill="none" xmlns="http://www.w3.org/2000/svg">
<path d="M0 15C0 6.71573 6.71573 0 15 0H85C93.2843 0 100 6.71573 100 15V85C100 93.2843 93.2843 100 85 100H15C6.71573 100 0 93.2843 0 85V15Z" fill="url(#paint0_linear_453_971)"/>
<path d="M50.7202 32.6364H58.3196V57.9915C58.3196 60.3352 57.7929 62.3712 56.7393 64.0994C55.6977 65.8277 54.2476 67.1593 52.3892 68.0945C50.5308 69.0296 48.3705 69.4972 45.9084 69.4972C43.7185 69.4972 41.7299 69.1125 39.9425 68.343C38.1669 67.5618 36.7583 66.3781 35.7166 64.7919C34.675 63.1939 34.16 61.1875 34.1719 58.7727H41.8246C41.8482 59.7315 42.0436 60.5542 42.4105 61.2408C42.7893 61.9155 43.3042 62.4363 43.9553 62.8033C44.6181 63.1584 45.3994 63.3359 46.299 63.3359C47.246 63.3359 48.045 63.1347 48.696 62.7322C49.3589 62.3179 49.862 61.7143 50.2053 60.9212C50.5485 60.1281 50.7202 59.1515 50.7202 57.9915V32.6364Z" fill="white"/>
<defs>
<linearGradient id="paint0_linear_453_971" x1="3.24193e-05" y1="5.70129e-05" x2="87" y2="85" gradientUnits="userSpaceOnUse">
<stop stop-color="#FF63C1"/>
<stop offset="0.630208" stop-color="#913BB7"/>
<stop offset="1" stop-color="#5123B1"/>
</linearGradient>
</defs>
</svg>
