<svg width="100" height="100" viewBox="0 0 100 100" fill="none" xmlns="http://www.w3.org/2000/svg">
<path d="M0 15C0 6.71573 6.71573 0 15 0H85C93.2843 0 100 6.71573 100 15V85C100 93.2843 93.2843 100 85 100H15C6.71573 100 0 93.2843 0 85V15Z" fill="url(#paint0_linear_453_974)"/>
<path d="M30.1605 31.6364H39.642L49.6562 56.0682H50.0824L60.0966 31.6364H69.5781V68H62.1207V44.3317H61.8189L52.4084 67.8224H47.3303L37.9197 44.2429H37.6179V68H30.1605V31.6364Z" fill="white"/>
<defs>
<linearGradient id="paint0_linear_453_974" x1="3.24193e-05" y1="5.70129e-05" x2="87" y2="85" gradientUnits="userSpaceOnUse">
<stop stop-color="#FF63C1"/>
<stop offset="0.630208" stop-color="#913BB7"/>
<stop offset="1" stop-color="#5123B1"/>
</linearGradient>
</defs>
</svg>
