<svg width="100" height="100" viewBox="0 0 100 100" fill="none" xmlns="http://www.w3.org/2000/svg">
<path d="M0 15C0 6.71573 6.71573 0 15 0H85C93.2843 0 100 6.71573 100 15V85C100 93.2843 93.2843 100 85 100H15C6.71573 100 0 93.2843 0 85V15Z" fill="url(#paint0_linear_453_976)"/>
<path d="M66.5767 49.8182C66.5767 53.7836 65.825 57.1572 64.3217 59.9389C62.8303 62.7206 60.7943 64.8454 58.2138 66.3132C55.6451 67.7692 52.7569 68.4972 49.549 68.4972C46.3175 68.4972 43.4174 67.7633 40.8487 66.2955C38.2801 64.8277 36.25 62.7029 34.7585 59.9212C33.267 57.1394 32.5213 53.7718 32.5213 49.8182C32.5213 45.8527 33.267 42.4792 34.7585 39.6974C36.25 36.9157 38.2801 34.7969 40.8487 33.3409C43.4174 31.8731 46.3175 31.1392 49.549 31.1392C52.7569 31.1392 55.6451 31.8731 58.2138 33.3409C60.7943 34.7969 62.8303 36.9157 64.3217 39.6974C65.825 42.4792 66.5767 45.8527 66.5767 49.8182ZM58.782 49.8182C58.782 47.2495 58.3973 45.0833 57.6278 43.3196C56.8703 41.5559 55.799 40.2183 54.4141 39.3068C53.0291 38.3954 51.4074 37.9396 49.549 37.9396C47.6906 37.9396 46.0689 38.3954 44.6839 39.3068C43.299 40.2183 42.2218 41.5559 41.4524 43.3196C40.6948 45.0833 40.3161 47.2495 40.3161 49.8182C40.3161 52.3868 40.6948 54.553 41.4524 56.3168C42.2218 58.0805 43.299 59.4181 44.6839 60.3295C46.0689 61.241 47.6906 61.6967 49.549 61.6967C51.4074 61.6967 53.0291 61.241 54.4141 60.3295C55.799 59.4181 56.8703 58.0805 57.6278 56.3168C58.3973 54.553 58.782 52.3868 58.782 49.8182Z" fill="white"/>
<defs>
<linearGradient id="paint0_linear_453_976" x1="3.24193e-05" y1="5.70129e-05" x2="87" y2="85" gradientUnits="userSpaceOnUse">
<stop stop-color="#FF63C1"/>
<stop offset="0.630208" stop-color="#913BB7"/>
<stop offset="1" stop-color="#5123B1"/>
</linearGradient>
</defs>
</svg>
