<svg width="100" height="100" viewBox="0 0 100 100" fill="none" xmlns="http://www.w3.org/2000/svg">
<path d="M0 15C0 6.71573 6.71573 0 15 0H85C93.2843 0 100 6.71573 100 15V85C100 93.2843 93.2843 100 85 100H15C6.71573 100 0 93.2843 0 85V15Z" fill="url(#paint0_linear_453_977)"/>
<path d="M37.1605 68V31.6364H51.5071C54.2652 31.6364 56.6148 32.1631 58.5561 33.2166C60.4974 34.2583 61.977 35.7083 62.995 37.5668C64.0249 39.4134 64.5398 41.544 64.5398 43.9588C64.5398 46.3736 64.0189 48.5043 62.9773 50.3509C61.9356 52.1974 60.4264 53.6357 58.4496 54.6655C56.4846 55.6953 54.1054 56.2102 51.3118 56.2102H42.1676V50.049H50.0689C51.5485 50.049 52.7678 49.7945 53.7266 49.2855C54.6972 48.7647 55.4193 48.0485 55.8928 47.1371C56.3781 46.2138 56.6207 45.1544 56.6207 43.9588C56.6207 42.7514 56.3781 41.6979 55.8928 40.7983C55.4193 39.8868 54.6972 39.1825 53.7266 38.6854C52.7559 38.1764 51.5249 37.9219 50.0334 37.9219H44.8487V68H37.1605Z" fill="white"/>
<defs>
<linearGradient id="paint0_linear_453_977" x1="3.24193e-05" y1="5.70129e-05" x2="87" y2="85" gradientUnits="userSpaceOnUse">
<stop stop-color="#FF63C1"/>
<stop offset="0.630208" stop-color="#913BB7"/>
<stop offset="1" stop-color="#5123B1"/>
</linearGradient>
</defs>
</svg>
