<svg width="100" height="100" viewBox="0 0 100 100" fill="none" xmlns="http://www.w3.org/2000/svg">
<path d="M0 15C0 6.71573 6.71573 0 15 0H85C93.2843 0 100 6.71573 100 15V85C100 93.2843 93.2843 100 85 100H15C6.71573 100 0 93.2843 0 85V15Z" fill="url(#paint0_linear_453_979)"/>
<path d="M36.1605 68V31.6364H50.5071C53.2533 31.6364 55.5971 32.1276 57.5384 33.1101C59.4915 34.0807 60.977 35.4598 61.995 37.2472C63.0249 39.0227 63.5398 41.112 63.5398 43.5149C63.5398 45.9297 63.0189 48.0071 61.9773 49.7472C60.9356 51.4754 59.4264 52.8011 57.4496 53.7244C55.4846 54.6477 53.1054 55.1094 50.3118 55.1094H40.706V48.9304H49.0689C50.5367 48.9304 51.7559 48.7292 52.7266 48.3267C53.6972 47.9242 54.4193 47.3205 54.8928 46.5156C55.3781 45.7107 55.6207 44.7105 55.6207 43.5149C55.6207 42.3075 55.3781 41.2895 54.8928 40.4609C54.4193 39.6323 53.6913 39.005 52.7088 38.5788C51.7382 38.1409 50.513 37.9219 49.0334 37.9219H43.8487V68H36.1605ZM55.7983 51.4517L64.8359 68H56.3487L47.5064 51.4517H55.7983Z" fill="white"/>
<defs>
<linearGradient id="paint0_linear_453_979" x1="3.24193e-05" y1="5.70129e-05" x2="87" y2="85" gradientUnits="userSpaceOnUse">
<stop stop-color="#FF63C1"/>
<stop offset="0.630208" stop-color="#913BB7"/>
<stop offset="1" stop-color="#5123B1"/>
</linearGradient>
</defs>
</svg>
