<svg width="100" height="100" viewBox="0 0 100 100" fill="none" xmlns="http://www.w3.org/2000/svg">
<path d="M0 15C0 6.71573 6.71573 0 15 0H85C93.2843 0 100 6.71573 100 15V85C100 93.2843 93.2843 100 85 100H15C6.71573 100 0 93.2843 0 85V15Z" fill="url(#paint0_linear_453_980)"/>
<path d="M55.8871 42.0945C55.745 40.6622 55.1354 39.5495 54.0582 38.7564C52.9811 37.9633 51.5192 37.5668 49.6726 37.5668C48.4179 37.5668 47.3584 37.7443 46.4943 38.0994C45.6302 38.4427 44.9673 38.9221 44.5057 39.5376C44.0559 40.1532 43.831 40.8516 43.831 41.6328C43.8073 42.2839 43.9434 42.852 44.2393 43.3374C44.5471 43.8227 44.9673 44.2429 45.5 44.598C46.0327 44.9413 46.6482 45.2431 47.3466 45.5036C48.045 45.7521 48.7907 45.9652 49.5838 46.1428L52.8509 46.924C54.437 47.2791 55.893 47.7526 57.2188 48.3445C58.5445 48.9363 59.6927 49.6643 60.6634 50.5284C61.634 51.3925 62.3857 52.4105 62.9183 53.5824C63.4628 54.7543 63.741 56.0978 63.7528 57.6129C63.741 59.8383 63.1728 61.7678 62.0483 63.4013C60.9356 65.023 59.3258 66.2836 57.2188 67.1832C55.1236 68.071 52.5964 68.5149 49.6371 68.5149C46.7015 68.5149 44.1446 68.0651 41.9666 67.1655C39.8004 66.2659 38.1077 64.9342 36.8885 63.1705C35.6811 61.3949 35.0478 59.1991 34.9886 56.5831H42.4283C42.5111 57.8023 42.8603 58.8203 43.4759 59.6371C44.1032 60.442 44.9377 61.0516 45.9794 61.4659C47.0329 61.8684 48.2225 62.0696 49.5483 62.0696C50.8504 62.0696 51.9808 61.8802 52.9396 61.5014C53.9103 61.1226 54.6619 60.5959 55.1946 59.9212C55.7273 59.2464 55.9936 58.4711 55.9936 57.5952C55.9936 56.7784 55.7509 56.0919 55.2656 55.5355C54.7921 54.9792 54.0938 54.5057 53.1705 54.1151C52.259 53.7244 51.1404 53.3693 49.8146 53.0497L45.8551 52.0554C42.7893 51.3097 40.3686 50.1437 38.593 48.5575C36.8175 46.9714 35.9356 44.8348 35.9474 42.1477C35.9356 39.946 36.5215 38.0225 37.7053 36.3771C38.9008 34.7318 40.5402 33.4474 42.6236 32.5241C44.7069 31.6009 47.0743 31.1392 49.7259 31.1392C52.4247 31.1392 54.7803 31.6009 56.7926 32.5241C58.8168 33.4474 60.3911 34.7318 61.5156 36.3771C62.6402 38.0225 63.2202 39.9283 63.2557 42.0945H55.8871Z" fill="white"/>
<defs>
<linearGradient id="paint0_linear_453_980" x1="3.24193e-05" y1="5.70129e-05" x2="87" y2="85" gradientUnits="userSpaceOnUse">
<stop stop-color="#FF63C1"/>
<stop offset="0.630208" stop-color="#913BB7"/>
<stop offset="1" stop-color="#5123B1"/>
</linearGradient>
</defs>
</svg>
