<svg width="200" height="100" viewBox="0 0 200 100" fill="none" xmlns="http://www.w3.org/2000/svg">
<path d="M0 15C0 6.71573 6.71573 0 15 0H185C193.284 0 200 6.71573 200 15V85C200 93.2843 193.284 100 185 100H15C6.71573 100 0 93.2843 0 85V15Z" fill="url(#paint0_linear_455_2)"/>
<path d="M64.8871 42.0945C64.745 40.6622 64.1354 39.5495 63.0582 38.7564C61.9811 37.9633 60.5192 37.5668 58.6726 37.5668C57.4179 37.5668 56.3584 37.7443 55.4943 38.0994C54.6302 38.4427 53.9673 38.9221 53.5057 39.5376C53.0559 40.1532 52.831 40.8516 52.831 41.6328C52.8073 42.2839 52.9434 42.852 53.2393 43.3374C53.5471 43.8227 53.9673 44.2429 54.5 44.598C55.0327 44.9413 55.6482 45.2431 56.3466 45.5036C57.045 45.7521 57.7907 45.9652 58.5838 46.1428L61.8509 46.924C63.437 47.2791 64.893 47.7526 66.2188 48.3445C67.5445 48.9363 68.6927 49.6643 69.6634 50.5284C70.634 51.3925 71.3857 52.4105 71.9183 53.5824C72.4628 54.7543 72.741 56.0978 72.7528 57.6129C72.741 59.8383 72.1728 61.7678 71.0483 63.4013C69.9356 65.023 68.3258 66.2836 66.2188 67.1832C64.1236 68.071 61.5964 68.5149 58.6371 68.5149C55.7015 68.5149 53.1446 68.0651 50.9666 67.1655C48.8004 66.2659 47.1077 64.9342 45.8885 63.1705C44.6811 61.3949 44.0478 59.1991 43.9886 56.5831H51.4283C51.5111 57.8023 51.8603 58.8203 52.4759 59.6371C53.1032 60.442 53.9377 61.0516 54.9794 61.4659C56.0329 61.8684 57.2225 62.0696 58.5483 62.0696C59.8504 62.0696 60.9808 61.8802 61.9396 61.5014C62.9103 61.1226 63.6619 60.5959 64.1946 59.9212C64.7273 59.2464 64.9936 58.4711 64.9936 57.5952C64.9936 56.7784 64.7509 56.0919 64.2656 55.5355C63.7921 54.9792 63.0938 54.5057 62.1705 54.1151C61.259 53.7244 60.1404 53.3693 58.8146 53.0497L54.8551 52.0554C51.7893 51.3097 49.3686 50.1437 47.593 48.5575C45.8175 46.9714 44.9356 44.8348 44.9474 42.1477C44.9356 39.946 45.5215 38.0225 46.7053 36.3771C47.9008 34.7318 49.5402 33.4474 51.6236 32.5241C53.7069 31.6009 56.0743 31.1392 58.7259 31.1392C61.4247 31.1392 63.7803 31.6009 65.7926 32.5241C67.8168 33.4474 69.3911 34.7318 70.5156 36.3771C71.6402 38.0225 72.2202 39.9283 72.2557 42.0945H64.8871ZM85.3461 52.233V68H77.7821V31.6364H85.133V45.5391H85.4526C86.0681 43.9292 87.0624 42.6686 88.4355 41.7571C89.8087 40.8338 91.531 40.3722 93.6025 40.3722C95.4964 40.3722 97.1477 40.7865 98.5563 41.6151C99.9767 42.4318 101.078 43.6096 101.859 45.1484C102.652 46.6754 103.043 48.5043 103.031 50.6349V68H95.4668V51.9844C95.4786 50.3035 95.0525 48.9955 94.1884 48.0604C93.3361 47.1252 92.1406 46.6577 90.6017 46.6577C89.5719 46.6577 88.6605 46.8767 87.8674 47.3146C87.0861 47.7526 86.4706 48.3918 86.0208 49.2322C85.5828 50.0608 85.3579 51.0611 85.3461 52.233ZM108.983 68V40.7273H116.547V68H108.983ZM112.783 37.2116C111.658 37.2116 110.694 36.8388 109.889 36.093C109.096 35.3355 108.699 34.4299 108.699 33.3764C108.699 32.3348 109.096 31.4411 109.889 30.6953C110.694 29.9377 111.658 29.5589 112.783 29.5589C113.908 29.5589 114.866 29.9377 115.659 30.6953C116.464 31.4411 116.867 32.3348 116.867 33.3764C116.867 34.4299 116.464 35.3355 115.659 36.093C114.866 36.8388 113.908 37.2116 112.783 37.2116ZM137.273 40.7273V46.4091H120.44V40.7273H137.273ZM124.293 68V38.7564C124.293 36.7796 124.678 35.1401 125.447 33.8381C126.229 32.536 127.294 31.5594 128.643 30.9084C129.993 30.2573 131.526 29.9318 133.242 29.9318C134.402 29.9318 135.461 30.0206 136.42 30.1982C137.391 30.3757 138.113 30.5355 138.586 30.6776L137.237 36.3594C136.941 36.2647 136.574 36.1759 136.136 36.093C135.71 36.0102 135.272 35.9688 134.822 35.9688C133.71 35.9688 132.934 36.2292 132.496 36.75C132.058 37.259 131.839 37.9751 131.839 38.8984V68H124.293ZM156.4 40.7273V46.4091H139.976V40.7273H156.4ZM143.705 34.1932H151.268V59.6193C151.268 60.3177 151.375 60.8622 151.588 61.2528C151.801 61.6316 152.097 61.898 152.476 62.0518C152.866 62.2057 153.316 62.2827 153.825 62.2827C154.18 62.2827 154.536 62.2531 154.891 62.1939C155.246 62.1229 155.518 62.0696 155.707 62.0341L156.897 67.6626C156.518 67.781 155.986 67.9171 155.299 68.071C154.612 68.2367 153.778 68.3374 152.795 68.3729C150.973 68.4439 149.375 68.2012 148.001 67.6449C146.64 67.0885 145.581 66.2244 144.823 65.0526C144.066 63.8807 143.693 62.401 143.705 60.6136V34.1932Z" fill="white"/>
<defs>
<linearGradient id="paint0_linear_455_2" x1="6.48387e-05" y1="5.70129e-05" x2="70.5849" y2="137.924" gradientUnits="userSpaceOnUse">
<stop stop-color="#FF63C1"/>
<stop offset="0.630208" stop-color="#913BB7"/>
<stop offset="1" stop-color="#5123B1"/>
</linearGradient>
</defs>
</svg>
