<svg width="100" height="100" viewBox="0 0 100 100" fill="none" xmlns="http://www.w3.org/2000/svg">
<path d="M0 15C0 6.71573 6.71573 0 15 0H85C93.2843 0 100 6.71573 100 15V85C100 93.2843 93.2843 100 85 100H15C6.71573 100 0 93.2843 0 85V15Z" fill="url(#paint0_linear_453_982)"/>
<path d="M56.6214 31.6364H64.3097V55.2514C64.3097 57.9029 63.6764 60.223 62.4098 62.2116C61.1551 64.2003 59.3973 65.7509 57.1364 66.8636C54.8755 67.9645 52.2417 68.5149 49.2351 68.5149C46.2166 68.5149 43.5769 67.9645 41.3161 66.8636C39.0552 65.7509 37.2973 64.2003 36.0426 62.2116C34.7879 60.223 34.1605 57.9029 34.1605 55.2514V31.6364H41.8487V54.5945C41.8487 55.9794 42.1506 57.2105 42.7543 58.2876C43.3698 59.3648 44.2339 60.2112 45.3466 60.8267C46.4593 61.4422 47.7554 61.75 49.2351 61.75C50.7266 61.75 52.0227 61.4422 53.1236 60.8267C54.2363 60.2112 55.0945 59.3648 55.6982 58.2876C56.3137 57.2105 56.6214 55.9794 56.6214 54.5945V31.6364Z" fill="white"/>
<defs>
<linearGradient id="paint0_linear_453_982" x1="3.24193e-05" y1="5.70129e-05" x2="87" y2="85" gradientUnits="userSpaceOnUse">
<stop stop-color="#FF63C1"/>
<stop offset="0.630208" stop-color="#913BB7"/>
<stop offset="1" stop-color="#5123B1"/>
</linearGradient>
</defs>
</svg>
